<svg id="Capa_1" data-name="Capa 1" xmlns="http://www.w3.org/2000/svg" viewBox="0 0 513.56 101.11"><defs><style>.cls-1{fill:#fff;}.cls-2{fill:#f7323f;}</style></defs><path class="cls-1" d="M201.05,32.81H184.49V21.49h45.92V32.81H213.84V79.54H201.05Z"/><path class="cls-1" d="M240.41,21.49H253.2V67.73h23.69V79.54H240.41Z"/><path class="cls-1" d="M439,35.68a9,9,0,0,0-4.22-2.91,15.15,15.15,0,0,0-5.05-1,13.17,13.17,0,0,0-2.87.33,10.8,10.8,0,0,0-2.78,1A6,6,0,0,0,421.93,35a4.65,4.65,0,0,0-.82,2.79,4.62,4.62,0,0,0,2,4,18.47,18.47,0,0,0,5,2.37c2,.66,4.14,1.31,6.44,2A26.82,26.82,0,0,1,440.91,49a15.27,15.27,0,0,1,5,4.84,14.73,14.73,0,0,1,2,8.11,18.72,18.72,0,0,1-1.8,8.45,17.09,17.09,0,0,1-4.88,6A20.8,20.8,0,0,1,434,79.87,31.56,31.56,0,0,1,425.45,81,31.24,31.24,0,0,1,415,79.3a26.22,26.22,0,0,1-9-5.58l9.1-10a13.26,13.26,0,0,0,5,4.06,14.23,14.23,0,0,0,6.19,1.43,13.68,13.68,0,0,0,3.15-.37,9.92,9.92,0,0,0,2.88-1.11,6.39,6.39,0,0,0,2-1.88,4.79,4.79,0,0,0,.77-2.71A4.9,4.9,0,0,0,433,59a18.41,18.41,0,0,0-5-2.58q-3-1.06-6.56-2.13a29.72,29.72,0,0,1-6.56-2.87,15.8,15.8,0,0,1-5-4.76,13.6,13.6,0,0,1-2-7.79,17.48,17.48,0,0,1,1.85-8.2,17.83,17.83,0,0,1,4.92-5.9,21.61,21.61,0,0,1,7.09-3.57A29.13,29.13,0,0,1,430,20a32.52,32.52,0,0,1,9.51,1.39,22,22,0,0,1,8.28,4.67Z"/><path class="cls-1" d="M457.84,21.49h39.44V33.3H470.63V44.12H495.8V55.93H470.63v11.8h28.12V79.54H457.84Z"/><polygon class="cls-1" points="53.75 21.45 53.75 33.26 27.59 33.26 27.59 45.07 51.78 45.07 51.78 56.88 27.59 56.88 27.59 79.5 14.8 79.5 14.8 21.45 53.75 21.45"/><path class="cls-2" d="M148.54,20A30.5,30.5,0,1,0,179,50.52,30.49,30.49,0,0,0,148.54,20Zm0,49.2a18.71,18.71,0,1,1,18.71-18.7A18.71,18.71,0,0,1,148.54,69.22Z"/><path class="cls-2" d="M86.52,24A26.52,26.52,0,1,0,113,50.52,26.52,26.52,0,0,0,86.52,24Zm0,41.24a14.73,14.73,0,1,1,14.72-14.72A14.73,14.73,0,0,1,86.52,65.24Z"/><path class="cls-2" d="M370.43,20a30.5,30.5,0,1,0,30.51,30.5A30.5,30.5,0,0,0,370.43,20Zm0,49.2a18.71,18.71,0,1,1,18.71-18.7A18.7,18.7,0,0,1,370.43,69.22Z"/><path class="cls-2" d="M308.41,24a26.52,26.52,0,1,0,26.52,26.52A26.51,26.51,0,0,0,308.41,24Zm0,41.24a14.73,14.73,0,1,1,14.73-14.72A14.72,14.72,0,0,1,308.41,65.24Z"/></svg>